<svg width="337" height="369" viewBox="0 0 337 369" fill="none" xmlns="http://www.w3.org/2000/svg">
<path d="M332.106 157.631L263.515 40.4192C257.438 30.0004 246.151 23.4886 233.995 23.4886H99.8529C87.6976 23.4886 76.4106 30.0004 70.3329 40.8533L4.34701 157.631C-1.73064 168.05 -1.29657 181.073 4.78108 191.492L73.3717 308.704C79.4494 319.123 90.7364 325.635 102.892 325.635H237.034C249.189 325.635 260.477 319.123 266.554 308.27L332.54 191.492C338.184 181.073 338.184 168.05 332.106 157.631Z" fill="url(#paint0_linear_36_4255)"/>
<path d="M318.58 302.84L273.866 321.073L279.944 368.826L137.987 285.909L176.624 219.923L318.58 302.84Z" fill="#E6E7E8"/>
<path d="M304.255 308.917L273.866 321.072L278.208 353.631L144.065 275.49L170.546 230.776L304.255 308.917Z" fill="url(#paint1_linear_36_4255)"/>
<path d="M17.7151 302.84L62.4292 321.073L56.3515 368.826L198.308 285.909L159.672 219.923L17.7151 302.84Z" fill="#E6E7E8"/>
<path d="M32.0417 308.917L62.43 321.072L58.0888 353.631L192.231 275.49L165.75 230.776L32.0417 308.917Z" fill="url(#paint2_linear_36_4255)"/>
<path d="M319.517 244.021V105.103C319.517 92.9476 313.005 81.6606 302.586 75.5829L184.506 6.55821C174.088 0.480557 160.63 0.480557 150.211 6.55821L32.131 75.5829C21.7122 81.6606 15.2004 92.9476 15.2004 105.103V244.021C15.2004 256.176 21.7122 267.463 32.131 273.541L150.211 342.565C160.63 348.643 174.088 348.643 184.506 342.565L302.586 273.541C313.005 267.463 319.517 256.176 319.517 244.021Z" fill="white" stroke="#E6E7E8" stroke-width="2.17059" stroke-miterlimit="10"/>
<path d="M301.718 233.603V115.523C301.718 103.367 295.207 92.0802 284.788 86.0026L184.507 27.3967C174.088 21.319 160.63 21.319 150.211 27.3967L49.9301 86.4367C39.5113 92.5144 32.9995 103.801 32.9995 115.957V234.037C32.9995 246.192 39.5113 257.479 49.9301 263.557L150.211 322.163C160.63 328.24 174.088 328.24 184.507 322.163L284.788 263.557C295.207 257.045 301.718 245.758 301.718 233.603Z" stroke="url(#paint3_linear_36_4255)" stroke-width="8.68236" stroke-miterlimit="10"/>
<path d="M166.952 234.036L172.162 250.098H189.092L175.2 260.083L180.41 276.579L166.952 266.595L153.061 276.579L158.27 260.083L144.378 250.098H161.309L166.952 234.036Z" fill="url(#paint4_linear_36_4255)"/>
<path d="M228.161 234.036L231.634 245.323H243.79L234.239 252.269L237.712 263.556L228.161 256.61L218.611 263.556L222.084 252.269L212.533 245.323H224.689L228.161 234.036Z" fill="url(#paint5_linear_36_4255)"/>
<path d="M105.306 234.036L109.213 245.323H120.934L111.383 252.269L114.856 263.556L105.306 256.61L95.7551 263.556L99.6621 252.269L90.1116 245.323H101.833L105.306 234.036Z" fill="url(#paint6_linear_36_4255)"/>
<path d="M232.353 84.8584C232.083 84.8584 231.834 84.8117 231.606 84.7184C231.378 84.6216 231.178 84.4885 231.005 84.3191C230.836 84.1463 230.702 83.9458 230.606 83.7177C230.512 83.4861 230.466 83.2372 230.466 82.9711C230.466 82.7049 230.512 82.4578 230.606 82.2296C230.702 81.9981 230.836 81.7976 231.005 81.6282C231.178 81.4588 231.378 81.3275 231.606 81.2342C231.834 81.1374 232.083 81.089 232.353 81.089C232.619 81.089 232.866 81.1374 233.094 81.2342C233.326 81.3275 233.526 81.4588 233.696 81.6282C233.865 81.7976 233.997 81.9981 234.09 82.2296C234.187 82.4578 234.235 82.7049 234.235 82.9711C234.235 83.2372 234.187 83.4861 234.09 83.7177C233.997 83.9458 233.865 84.1463 233.696 84.3191C233.526 84.4885 233.326 84.6216 233.094 84.7184C232.866 84.8117 232.619 84.8584 232.353 84.8584ZM232.353 84.5265C232.574 84.5265 232.778 84.4885 232.965 84.4125C233.151 84.333 233.314 84.2224 233.452 84.0806C233.59 83.9389 233.696 83.7747 233.768 83.5881C233.844 83.398 233.882 83.1923 233.882 82.9711C233.882 82.7499 233.844 82.5459 233.768 82.3593C233.696 82.1692 233.59 82.005 233.452 81.8667C233.314 81.725 233.151 81.6161 232.965 81.5401C232.778 81.4606 232.574 81.4208 232.353 81.4208C232.128 81.4208 231.923 81.4606 231.736 81.5401C231.549 81.6161 231.387 81.725 231.249 81.8667C231.11 82.005 231.003 82.1692 230.927 82.3593C230.855 82.5459 230.818 82.7499 230.818 82.9711C230.818 83.1923 230.855 83.398 230.927 83.5881C231.003 83.7747 231.11 83.9389 231.249 84.0806C231.387 84.2224 231.549 84.333 231.736 84.4125C231.923 84.4885 232.128 84.5265 232.353 84.5265ZM231.819 84.0962C231.594 84.0962 231.482 83.9804 231.482 83.7488V82.2711C231.482 82.1432 231.515 82.0447 231.58 81.9756C231.65 81.903 231.75 81.8667 231.881 81.8667H232.503C232.756 81.8667 232.951 81.9307 233.089 82.0585C233.227 82.1864 233.297 82.3437 233.297 82.5304C233.297 82.7308 233.229 82.8847 233.094 82.9918C232.963 83.099 232.78 83.1526 232.545 83.1526L232.721 83.0903C232.839 83.0903 232.932 83.118 233.001 83.1733C233.07 83.2251 233.127 83.3375 233.172 83.5103L233.224 83.697C233.259 83.8352 233.24 83.9372 233.167 84.0029C233.098 84.0651 233.003 84.0962 232.882 84.0962C232.799 84.0962 232.73 84.072 232.674 84.0236C232.623 83.9752 232.588 83.9095 232.571 83.8266L232.477 83.4481C232.464 83.3859 232.438 83.3444 232.4 83.3236C232.365 83.2995 232.325 83.2874 232.28 83.2874H232.063L232.161 83.2251V83.7488C232.161 83.9804 232.047 84.0962 231.819 84.0962ZM232.156 82.8H232.405C232.488 82.8 232.55 82.7827 232.591 82.7481C232.633 82.7136 232.654 82.6565 232.654 82.577C232.654 82.4975 232.631 82.4405 232.586 82.4059C232.545 82.3714 232.484 82.3541 232.405 82.3541H232.156V82.8Z" fill="#1A222C"/>
<path fill-rule="evenodd" clip-rule="evenodd" d="M100.097 81.0784C97.8063 81.0784 95.9492 82.9355 95.9492 85.2263V111.151C95.9492 111.16 95.9493 111.17 95.9493 111.179V120.378L101.029 115.298H225.052C227.343 115.298 229.2 113.441 229.2 111.151V85.2263C229.2 82.9355 227.343 81.0784 225.052 81.0784H100.097Z" fill="#1A222C"/>
<path fill-rule="evenodd" clip-rule="evenodd" d="M111.67 93.5841C111.462 93.5219 111.151 93.4804 110.84 93.4804C110.011 93.4804 108.704 93.8123 108.165 94.9737V93.5841H105.116V103.892H108.269V99.3912C108.269 97.338 109.409 96.5913 110.674 96.5913C110.985 96.5913 111.317 96.6121 111.67 96.695V93.5841ZM112.374 101.05C112.374 99.2253 113.722 98.1883 115.423 97.9394L117.849 97.5661C118.409 97.4832 118.596 97.2136 118.596 96.861C118.596 96.2596 118.078 95.7411 117.082 95.7411C115.983 95.7411 115.381 96.4877 115.319 97.255L112.582 96.6951C112.706 95.2226 114.075 93.2731 117.103 93.2731C120.442 93.2731 121.666 95.1396 121.666 97.255V102.295C121.666 103.104 121.769 103.788 121.79 103.892H118.949C118.928 103.809 118.845 103.435 118.845 102.73C118.306 103.601 117.31 104.182 115.941 104.182C113.681 104.182 112.374 102.689 112.374 101.05ZM116.709 101.9C117.642 101.9 118.596 101.444 118.596 99.8471V99.3908L116.647 99.7019C115.983 99.8056 115.485 100.117 115.485 100.843C115.485 101.382 115.838 101.9 116.709 101.9ZM127.325 90.577H124.505V91.9043C124.505 92.8584 123.986 93.5842 122.908 93.5842H122.389V96.3426H124.214V100.76C124.214 102.813 125.521 104.078 127.657 104.078C128.653 104.078 129.171 103.85 129.296 103.788V101.175C129.109 101.216 128.798 101.279 128.466 101.279C127.782 101.279 127.325 101.05 127.325 100.2V96.3426H129.337V93.5842H127.325V90.577ZM133.173 97.5038H137.3C137.258 96.7157 136.719 95.7617 135.226 95.7617C133.899 95.7617 133.235 96.7365 133.173 97.5038ZM137.528 100.179L140.161 100.926C139.664 102.709 138.025 104.203 135.412 104.203C132.571 104.203 130.041 102.17 130.041 98.7068C130.041 95.3885 132.509 93.2731 135.184 93.2731C138.378 93.2731 140.348 95.2433 140.348 98.5616C140.348 98.9971 140.307 99.4742 140.286 99.5364H133.11C133.172 100.698 134.23 101.527 135.454 101.527C136.594 101.527 137.237 100.988 137.528 100.179ZM143.913 103.892V97.8776C143.913 96.3844 144.846 95.3474 146.236 95.3474C147.729 95.3474 148.351 96.3429 148.351 97.6287V103.892H150.301V97.8569C150.301 96.4258 151.234 95.3474 152.603 95.3474C154.075 95.3474 154.718 96.3222 154.718 97.6287V103.892H156.647V97.4213C156.647 94.8082 154.946 93.626 153.204 93.626C151.939 93.626 150.653 94.0823 149.865 95.5133C149.326 94.2275 148.123 93.626 146.879 93.626C145.717 93.626 144.473 94.1445 143.851 95.2437V93.9164H141.984V103.892H143.913ZM161.582 108.059L168.073 93.9147H165.979L162.992 100.8L159.881 93.9147H157.641L161.934 102.791L159.446 108.059H161.582ZM168.383 101.05C168.383 99.2253 169.732 98.1883 171.432 97.9394L173.859 97.5661C174.419 97.4832 174.605 97.2136 174.605 96.861C174.605 96.2596 174.087 95.7411 173.091 95.7411C171.992 95.7411 171.391 96.4877 171.328 97.255L168.591 96.6951C168.715 95.2226 170.084 93.2731 173.112 93.2731C176.451 93.2731 177.675 95.1396 177.675 97.255V102.295C177.675 103.104 177.778 103.788 177.799 103.892H174.958C174.937 103.809 174.854 103.435 174.854 102.73C174.315 103.601 173.319 104.182 171.951 104.182C169.69 104.182 168.383 102.689 168.383 101.05ZM172.716 101.9C173.65 101.9 174.604 101.444 174.604 99.8471V99.3908L172.654 99.7019C171.99 99.8056 171.493 100.117 171.493 100.843C171.493 101.382 171.845 101.9 172.716 101.9ZM178.875 104.472L181.654 103.684C181.862 104.68 182.691 105.405 183.873 105.405C185.45 105.405 186.424 104.638 186.424 102.771V102.294C186.051 102.854 185.159 103.456 183.666 103.456C180.928 103.456 178.875 101.299 178.875 98.437C178.875 95.7201 180.845 93.3973 183.666 93.3973C185.346 93.3973 186.238 94.1439 186.528 94.6831V93.5839H189.535V102.606C189.535 105.571 187.876 108.143 184.019 108.143C181.053 108.143 179.166 106.318 178.875 104.472ZM184.246 100.718C185.532 100.718 186.445 99.8473 186.445 98.4371C186.445 97.0268 185.428 96.1557 184.246 96.1557C183.064 96.1557 182.027 97.0268 182.027 98.4371C182.027 99.8473 182.981 100.718 184.246 100.718ZM193.91 97.5038H198.037C197.995 96.7157 197.456 95.7617 195.963 95.7617C194.636 95.7617 193.972 96.7365 193.91 97.5038ZM198.265 100.179L200.899 100.926C200.401 102.709 198.763 104.203 196.15 104.203C193.309 104.203 190.778 102.17 190.778 98.7068C190.778 95.3885 193.246 93.2731 195.922 93.2731C199.116 93.2731 201.086 95.2433 201.086 98.5616C201.086 98.9971 201.044 99.4742 201.024 99.5364H193.848C193.91 100.698 194.968 101.527 196.191 101.527C197.332 101.527 197.975 100.988 198.265 100.179ZM205.604 97.9804C205.604 96.9435 206.268 96.1761 207.305 96.1761C208.446 96.1761 208.985 96.9435 208.985 97.9597V103.891H212.137V97.4205C212.137 95.1599 210.976 93.3141 208.384 93.3141C207.326 93.3141 206.061 93.7911 205.501 94.7658V93.5837H202.452V103.891H205.604V97.9804ZM217.902 90.577H215.081V91.9043C215.081 92.8584 214.563 93.5842 213.484 93.5842H212.966V96.3426H214.791V100.76C214.791 102.813 216.098 104.078 218.234 104.078C219.229 104.078 219.748 103.85 219.872 103.788V101.175C219.685 101.216 219.374 101.279 219.043 101.279C218.358 101.279 217.902 101.05 217.902 100.2V96.3426H219.914V93.5842H217.902V90.577Z" fill="white"/>
<path fill-rule="evenodd" clip-rule="evenodd" d="M221.873 154.424H264.686V155.144H221.873V154.424Z" fill="#3D8C71"/>
<path d="M264.339 188.587H252.823V217H244.514V188.587H233.051V180.898H264.339V188.587Z" fill="url(#paint7_linear_36_4255)"/>
<path d="M221.293 217L214.467 203.557H211.458V217H202.966V180.898H218.068C225.592 180.898 230.429 185.787 230.429 192.202C230.429 197.091 227.581 200.808 222.905 202.386L230.644 217H221.293ZM211.458 196.632H216.456C219.949 196.632 221.83 194.799 221.83 192.253C221.83 189.555 219.949 187.874 216.456 187.874H211.458V196.632Z" fill="url(#paint8_linear_36_4255)"/>
<path d="M196.949 217H172.881V180.898H196.896V188.485H181.332V195.359H195.452V202.437H181.332V209.362H196.949V217Z" fill="url(#paint9_linear_36_4255)"/>
<path d="M149.847 197.091H154.623C157.738 197.091 159.866 195.308 159.866 192.508C159.866 189.605 157.738 187.874 154.623 187.874H149.847V197.091ZM155.453 204.016H149.795V217H141.593V180.898H155.453C162.929 180.898 168.068 185.736 168.068 192.457C168.068 199.28 162.929 204.016 155.453 204.016Z" fill="url(#paint10_linear_36_4255)"/>
<path d="M136.673 180.898L124.563 199.026L136.78 217H126.581L119.145 205.289L111.761 217H101.881L114.045 198.924L101.881 180.898H111.974L119.41 192.61L126.847 180.898H136.673Z" fill="url(#paint11_linear_36_4255)"/>
<path d="M98.2712 217H74.2034V180.898H98.2177V188.485H82.6538V195.359H96.7736V202.437H82.6538V209.362H98.2712V217Z" fill="url(#paint12_linear_36_4255)"/>
<path d="M204.169 165.254H192.135V147.203H204.143V150.997H196.361V154.434H203.421V157.973H196.361V161.435H204.169V165.254Z" fill="url(#paint13_linear_36_4255)"/>
<path d="M181.1 165.254C175.877 165.254 171.678 161.424 171.678 155.666C171.678 149.908 175.979 146 181.049 146C186.503 146 188.909 149.569 189.498 152.227L185.683 153.452C185.402 152.175 184.25 150.012 181.049 150.012C178.617 150.012 175.877 151.784 175.877 155.666C175.877 159.131 178.386 161.138 181.1 161.138C184.25 161.138 185.504 159.001 185.863 157.672L189.729 158.793C189.14 161.346 186.733 165.254 181.1 165.254Z" fill="url(#paint14_linear_36_4255)"/>
<path d="M168.068 165.254H164.458V147.203H168.068V165.254Z" fill="url(#paint15_linear_36_4255)"/>
<path d="M156.375 165.254L153.111 158.533H151.671V165.254H147.61V147.203H154.833C158.431 147.203 160.745 149.648 160.745 152.855C160.745 155.3 159.382 157.158 157.146 157.947L160.847 165.254H156.375ZM151.671 155.07H154.062C155.732 155.07 156.632 154.154 156.632 152.881C156.632 151.532 155.732 150.691 154.062 150.691H151.671V155.07Z" fill="url(#paint16_linear_36_4255)"/>
<path d="M136.093 155.3H138.481C140.038 155.3 141.102 154.408 141.102 153.008C141.102 151.557 140.038 150.691 138.481 150.691H136.093V155.3ZM138.896 158.762H136.067V165.254H131.966V147.203H138.896C142.634 147.203 145.203 149.622 145.203 152.983C145.203 156.394 142.634 158.762 138.896 158.762Z" fill="url(#paint17_linear_36_4255)"/>
<path fill-rule="evenodd" clip-rule="evenodd" d="M73.8562 154.424H116.669V155.144H73.8562V154.424Z" fill="#3D8C71"/>
<defs>
<linearGradient id="paint0_linear_36_4255" x1="0.558875" y1="174.676" x2="336.77" y2="174.676" gradientUnits="userSpaceOnUse">
<stop stop-color="#3D8C71"/>
<stop offset="1" stop-color="#0D5652"/>
</linearGradient>
<linearGradient id="paint1_linear_36_4255" x1="159.288" y1="245.125" x2="276.658" y2="320.577" gradientUnits="userSpaceOnUse">
<stop stop-color="#3D8C71"/>
<stop offset="1" stop-color="#0D5652"/>
</linearGradient>
<linearGradient id="paint2_linear_36_4255" x1="177.008" y1="245.125" x2="59.6379" y2="320.577" gradientUnits="userSpaceOnUse">
<stop stop-color="#3D8C71"/>
<stop offset="1" stop-color="#0D5652"/>
</linearGradient>
<linearGradient id="paint3_linear_36_4255" x1="64.4503" y1="250.704" x2="292.188" y2="145.18" gradientUnits="userSpaceOnUse">
<stop stop-color="#3D8C71"/>
<stop offset="1" stop-color="#0D5652"/>
</linearGradient>
<linearGradient id="paint4_linear_36_4255" x1="166.016" y1="232.702" x2="171.106" y2="352.303" gradientUnits="userSpaceOnUse">
<stop stop-color="#3D8C71"/>
<stop offset="1" stop-color="#033F7D"/>
</linearGradient>
<linearGradient id="paint5_linear_36_4255" x1="227.659" y1="233.11" x2="231.165" y2="316.101" gradientUnits="userSpaceOnUse">
<stop stop-color="#3D8C71"/>
<stop offset="1" stop-color="#033F7D"/>
</linearGradient>
<linearGradient id="paint6_linear_36_4255" x1="105.027" y1="233.11" x2="108.582" y2="316.097" gradientUnits="userSpaceOnUse">
<stop stop-color="#3D8C71"/>
<stop offset="1" stop-color="#033F7D"/>
</linearGradient>
<linearGradient id="paint7_linear_36_4255" x1="76.9703" y1="153.351" x2="257.262" y2="153.351" gradientUnits="userSpaceOnUse">
<stop stop-color="#3D8C71"/>
<stop offset="1" stop-color="#0D5652"/>
</linearGradient>
<linearGradient id="paint8_linear_36_4255" x1="74.0771" y1="153.351" x2="258.341" y2="153.351" gradientUnits="userSpaceOnUse">
<stop stop-color="#3D8C71"/>
<stop offset="1" stop-color="#0D5652"/>
</linearGradient>
<linearGradient id="paint9_linear_36_4255" x1="75.7966" y1="153.351" x2="259.17" y2="153.351" gradientUnits="userSpaceOnUse">
<stop stop-color="#3D8C71"/>
<stop offset="1" stop-color="#0D5652"/>
</linearGradient>
<linearGradient id="paint10_linear_36_4255" x1="78.9465" y1="153.351" x2="256.927" y2="153.351" gradientUnits="userSpaceOnUse">
<stop stop-color="#3D8C71"/>
<stop offset="1" stop-color="#0D5652"/>
</linearGradient>
<linearGradient id="paint11_linear_36_4255" x1="77.7925" y1="153.351" x2="259.91" y2="153.351" gradientUnits="userSpaceOnUse">
<stop stop-color="#3D8C71"/>
<stop offset="1" stop-color="#0D5652"/>
</linearGradient>
<linearGradient id="paint12_linear_36_4255" x1="78.289" y1="153.351" x2="261.663" y2="153.351" gradientUnits="userSpaceOnUse">
<stop stop-color="#3D8C71"/>
<stop offset="1" stop-color="#0D5652"/>
</linearGradient>
<linearGradient id="paint13_linear_36_4255" x1="75.1339" y1="152.524" x2="258.508" y2="152.524" gradientUnits="userSpaceOnUse">
<stop stop-color="#3D8C71"/>
<stop offset="1" stop-color="#0D5652"/>
</linearGradient>
<linearGradient id="paint14_linear_36_4255" x1="80.4831" y1="151.836" x2="256.054" y2="151.836" gradientUnits="userSpaceOnUse">
<stop stop-color="#3D8C71"/>
<stop offset="1" stop-color="#0D5652"/>
</linearGradient>
<linearGradient id="paint15_linear_36_4255" x1="90.2401" y1="152.524" x2="244.962" y2="152.524" gradientUnits="userSpaceOnUse">
<stop stop-color="#3D8C71"/>
<stop offset="1" stop-color="#0D5652"/>
</linearGradient>
<linearGradient id="paint16_linear_36_4255" x1="79.2046" y1="152.524" x2="255.457" y2="152.524" gradientUnits="userSpaceOnUse">
<stop stop-color="#3D8C71"/>
<stop offset="1" stop-color="#0D5652"/>
</linearGradient>
<linearGradient id="paint17_linear_36_4255" x1="78.6812" y1="152.524" x2="256.662" y2="152.524" gradientUnits="userSpaceOnUse">
<stop stop-color="#3D8C71"/>
<stop offset="1" stop-color="#0D5652"/>
</linearGradient>
</defs>
</svg>
