<svg width="735" height="804" viewBox="0 0 735 804" fill="none" xmlns="http://www.w3.org/2000/svg">
<path d="M724.928 342.715L575.207 86.8622C561.941 64.1197 537.303 49.9058 510.77 49.9058H217.961C191.428 49.9058 166.791 64.1198 153.524 87.8099L9.48874 342.715C-3.77769 365.457 -2.83017 393.885 10.4363 416.628L160.157 672.481C173.424 695.223 198.062 709.437 224.594 709.437H517.404C543.936 709.437 568.574 695.223 581.84 671.533L725.876 416.628C738.195 393.885 738.195 365.457 724.928 342.715Z" fill="url(#paint0_linear_2054_15705)"/>
<path d="M695.404 659.681L597.801 699.48L611.068 803.716L301.202 622.724L385.538 478.688L695.404 659.681Z" fill="#E6E7E8"/>
<path d="M664.134 672.945L597.802 699.478L607.278 770.548L314.469 599.979L372.273 502.376L664.134 672.945Z" fill="url(#paint1_linear_2054_15705)"/>
<path d="M38.6689 659.681L136.272 699.48L123.005 803.716L432.871 622.724L348.535 478.688L38.6689 659.681Z" fill="#E6E7E8"/>
<path d="M69.9412 672.945L136.273 699.478L126.797 770.548L419.606 599.979L361.803 502.376L69.9412 672.945Z" fill="url(#paint2_linear_2054_15705)"/>
<path d="M697.449 531.288V228.055C697.449 201.522 683.235 176.885 660.492 163.618L402.745 12.9498C380.002 -0.316608 350.626 -0.316608 327.884 12.9498L70.1361 163.618C47.3937 176.885 33.1797 201.522 33.1797 228.055V531.288C33.1797 557.821 47.3937 582.459 70.1361 595.725L327.884 746.394C350.626 759.66 380.002 759.66 402.745 746.394L660.492 595.725C683.235 582.459 697.449 557.821 697.449 531.288Z" fill="white" stroke="#E6E7E8" stroke-width="4.73801" stroke-miterlimit="10"/>
<path d="M658.598 508.548V250.8C658.598 224.267 644.384 199.629 621.642 186.363L402.745 58.4366C380.003 45.1702 350.627 45.1702 327.885 58.4366L108.989 187.311C86.2463 200.577 72.0322 225.215 72.0322 251.747V509.495C72.0322 536.028 86.2463 560.666 108.989 573.932L327.885 701.859C350.627 715.125 380.003 715.125 402.745 701.859L621.642 573.932C644.384 559.718 658.598 535.081 658.598 508.548Z" stroke="url(#paint3_linear_2054_15705)" stroke-width="18.952" stroke-miterlimit="10"/>
<path d="M364.427 509.493L375.798 544.555H412.755L382.431 566.349L393.802 602.358L364.427 580.563L334.104 602.358L345.475 566.349L315.152 544.555H352.108L364.427 509.493Z" fill="url(#paint4_linear_2054_15705)"/>
<path d="M498.036 509.493L505.617 534.131H532.15L511.302 549.293L518.883 573.93L498.036 558.769L477.188 573.93L484.769 549.293L463.922 534.131H490.455L498.036 509.493Z" fill="url(#paint5_linear_2054_15705)"/>
<path d="M229.864 509.493L238.392 534.131H263.977L243.13 549.293L250.711 573.93L229.864 558.769L209.016 573.93L217.545 549.293L196.698 534.131H222.283L229.864 509.493Z" fill="url(#paint6_linear_2054_15705)"/>
<path d="M190.905 336.691V320.527H127.209V336.691H150.547V396.426H167.461V336.691H190.905ZM212.656 358.423C212.656 342.579 224.004 335.407 234.602 335.407C245.093 335.407 256.44 342.579 256.44 358.423C256.44 374.266 245.093 381.332 234.602 381.332C224.004 381.332 212.656 374.266 212.656 358.423ZM195.1 358.53C195.1 382.509 213.192 398.032 234.602 398.032C255.905 398.032 273.997 382.509 273.997 358.53C273.997 334.443 255.905 318.921 234.602 318.921C213.192 318.921 195.1 334.443 195.1 358.53ZM303.071 354.569V335.193H312.92C319.343 335.193 323.732 338.832 323.732 344.934C323.732 350.822 319.343 354.569 312.92 354.569H303.071ZM314.633 369.128C330.048 369.128 340.646 359.172 340.646 344.827C340.646 330.696 330.048 320.527 314.633 320.527H286.05V396.426H302.964V369.128H314.633ZM393.364 351.808C392.905 350.317 392.675 348.712 392.675 347.22C392.675 341.027 396.116 336.21 403.113 336.21C409.765 336.21 413.092 340.339 413.092 345.041C413.092 349.973 410.798 353.07 404.948 356.511L392.79 363.622C379.141 371.536 375.241 382.777 375.241 396.426H431.787V381.286H397.378C398.41 379.106 400.245 377.615 402.425 376.239L416.533 367.866C426.052 362.246 431.214 354.332 431.214 344.697C431.214 331.392 420.662 320.267 403.572 320.267C385.679 320.267 375.7 332.195 375.7 345.5C375.7 347.794 376.044 350.776 376.388 351.694L393.364 351.808ZM457.225 359.264C457.225 353.299 457.913 347.45 459.978 343.091C462.042 338.962 465.369 336.21 470.874 336.21C476.494 336.21 479.706 338.962 481.77 343.091C483.95 347.45 484.638 353.299 484.638 359.264C484.638 365.228 483.95 371.078 481.77 375.436C479.706 379.565 476.494 382.318 470.874 382.318C465.369 382.318 462.042 379.565 459.978 375.436C457.913 371.078 457.225 365.228 457.225 359.264ZM439.103 359.264C439.103 368.44 440.479 377.73 445.641 385.53C450.573 392.87 458.831 398.261 470.874 398.261C483.032 398.261 491.29 392.87 496.222 385.53C501.384 377.73 502.76 368.44 502.76 359.264C502.76 350.088 501.384 340.797 496.222 332.998C491.29 325.543 483.032 320.267 470.874 320.267C458.831 320.267 450.573 325.543 445.641 332.998C440.479 340.797 439.103 350.088 439.103 359.264ZM521.502 339.65C521.502 335.292 524.484 332.31 528.498 332.31C532.512 332.31 535.38 335.292 535.38 339.65C535.38 344.124 532.512 347.22 528.498 347.22C524.484 347.22 521.502 344.238 521.502 339.65ZM509.114 339.65C509.114 350.317 517.716 358.69 528.383 358.69C539.05 358.69 547.882 350.661 547.882 339.65C547.882 328.984 539.05 320.611 528.498 320.611C517.946 320.611 509.114 328.984 509.114 339.65ZM573.918 378.877C573.918 374.519 576.9 371.536 580.915 371.536C584.929 371.536 587.797 374.519 587.797 378.877C587.797 383.35 584.929 386.447 580.915 386.447C576.9 386.447 573.918 383.465 573.918 378.877ZM561.531 378.877C561.531 389.544 570.133 397.917 580.8 397.917C591.467 397.917 600.299 389.888 600.299 378.877C600.299 368.21 591.467 359.837 580.915 359.837C570.363 359.837 561.531 368.21 561.531 378.877ZM536.068 396.426L588.256 321.987H573.46L521.387 396.426H536.068ZM206.492 473.426V430.055H198.05V458.744L180.005 430.055H169.483V473.426H177.925V442.656L197.622 473.426H206.492ZM245.801 473.426H254.977L238.461 430.055H228.673L212.034 473.426H220.966L224.575 463.516H242.192L245.801 473.426ZM233.383 439.414L239.378 455.808H227.389L233.383 439.414ZM288.454 438.068V430.055H252.546V438.068H266.248V473.426H274.751V438.068H288.454ZM302.96 473.426V430.055H294.396V473.426H302.96ZM319.033 451.71C319.033 441.922 325.885 437.273 332.552 437.273C339.281 437.273 346.133 441.922 346.133 451.71C346.133 461.497 339.281 466.146 332.552 466.146C325.885 466.146 319.033 461.497 319.033 451.71ZM310.286 451.771C310.286 465.718 320.807 474.343 332.552 474.343C344.359 474.343 354.88 465.718 354.88 451.771C354.88 437.762 344.359 429.137 332.552 429.137C320.807 429.137 310.286 437.762 310.286 451.771ZM399.208 473.426V430.055H390.766V458.744L372.721 430.055H362.199V473.426H370.641V442.656L390.338 473.426H399.208ZM449.773 460.029L440.108 430.055H431.36L421.756 459.907L413.804 430.055H404.873L416.924 473.426H425.732L435.642 442.534L445.552 473.426H454.239L466.228 430.055H457.603L449.773 460.029ZM480.502 473.426V430.055H471.938V473.426H480.502ZM498.839 465.596V437.885H505.629C512.725 437.885 518.598 442.35 518.598 451.771C518.598 461.191 512.664 465.596 505.568 465.596H498.839ZM505.874 473.426C518.231 473.426 527.345 465.473 527.345 451.771C527.345 438.068 518.292 430.055 505.935 430.055H490.397V473.426H505.874ZM561.824 473.426V465.473H543.105V455.441H560.05V447.917H543.105V438.007H561.824V430.055H534.664V473.426H561.824Z" fill="#920D5D"/>
<path d="M507.185 183.951C506.597 183.951 506.054 183.849 505.556 183.646C505.058 183.434 504.62 183.144 504.243 182.774C503.873 182.397 503.583 181.959 503.371 181.461C503.168 180.956 503.066 180.413 503.066 179.832C503.066 179.251 503.168 178.711 503.371 178.213C503.583 177.708 503.873 177.27 504.243 176.9C504.62 176.531 505.058 176.244 505.556 176.04C506.054 175.829 506.597 175.723 507.185 175.723C507.766 175.723 508.306 175.829 508.804 176.04C509.309 176.244 509.747 176.531 510.117 176.9C510.486 177.27 510.773 177.708 510.977 178.213C511.188 178.711 511.294 179.251 511.294 179.832C511.294 180.413 511.188 180.956 510.977 181.461C510.773 181.959 510.486 182.397 510.117 182.774C509.747 183.144 509.309 183.434 508.804 183.646C508.306 183.849 507.766 183.951 507.185 183.951ZM507.185 183.227C507.668 183.227 508.113 183.144 508.521 182.978C508.928 182.804 509.283 182.563 509.585 182.254C509.887 181.944 510.117 181.586 510.275 181.178C510.441 180.763 510.524 180.314 510.524 179.832C510.524 179.349 510.441 178.904 510.275 178.496C510.117 178.081 509.887 177.723 509.585 177.421C509.283 177.112 508.928 176.874 508.521 176.708C508.113 176.534 507.668 176.448 507.185 176.448C506.695 176.448 506.246 176.534 505.839 176.708C505.431 176.874 505.077 177.112 504.775 177.421C504.473 177.723 504.239 178.081 504.073 178.496C503.915 178.904 503.835 179.349 503.835 179.832C503.835 180.314 503.915 180.763 504.073 181.178C504.239 181.586 504.473 181.944 504.775 182.254C505.077 182.563 505.431 182.804 505.839 182.978C506.246 183.144 506.695 183.227 507.185 183.227ZM506.02 182.287C505.529 182.287 505.284 182.035 505.284 181.529V178.304C505.284 178.025 505.356 177.809 505.499 177.659C505.65 177.5 505.869 177.421 506.156 177.421H507.514C508.064 177.421 508.491 177.56 508.793 177.84C509.094 178.119 509.245 178.462 509.245 178.87C509.245 179.307 509.098 179.643 508.804 179.877C508.517 180.111 508.117 180.228 507.604 180.228L507.989 180.092C508.246 180.092 508.449 180.152 508.6 180.273C508.751 180.386 508.876 180.631 508.974 181.009L509.087 181.416C509.162 181.718 509.121 181.94 508.962 182.084C508.811 182.22 508.604 182.287 508.34 182.287C508.159 182.287 508.008 182.235 507.887 182.129C507.774 182.023 507.699 181.88 507.661 181.699L507.457 180.873C507.427 180.737 507.37 180.646 507.287 180.601C507.212 180.548 507.125 180.522 507.027 180.522H506.552L506.767 180.386V181.529C506.767 182.035 506.518 182.287 506.02 182.287ZM506.755 179.458H507.299C507.48 179.458 507.616 179.42 507.706 179.345C507.797 179.269 507.842 179.145 507.842 178.971C507.842 178.798 507.793 178.673 507.695 178.598C507.604 178.522 507.472 178.485 507.299 178.485H506.755V179.458Z" fill="#1A222C"/>
<path fill-rule="evenodd" clip-rule="evenodd" d="M218.494 175.614C213.494 175.614 209.44 179.668 209.44 184.668V241.256C209.44 241.273 209.44 241.289 209.44 241.306V261.399L220.529 250.31H491.248C496.248 250.31 500.302 246.257 500.302 241.256V184.668C500.302 179.668 496.248 175.614 491.248 175.614H218.494Z" fill="#1A222C"/>
<path fill-rule="evenodd" clip-rule="evenodd" d="M243.755 202.912C243.303 202.776 242.624 202.686 241.945 202.686C240.134 202.686 237.282 203.41 236.105 205.945V202.912H229.45V225.412H236.331V215.588C236.331 211.106 238.821 209.476 241.582 209.476C242.261 209.476 242.986 209.522 243.755 209.703V202.912ZM245.293 219.21C245.293 215.226 248.236 212.962 251.948 212.419L257.244 211.604C258.467 211.423 258.874 210.835 258.874 210.065C258.874 208.752 257.742 207.62 255.569 207.62C253.17 207.62 251.857 209.25 251.721 210.925L245.746 209.703C246.017 206.489 249.005 202.233 255.615 202.233C262.903 202.233 265.574 206.307 265.574 210.925V221.926C265.574 223.691 265.8 225.185 265.846 225.412H259.644C259.598 225.23 259.417 224.416 259.417 222.876C258.24 224.778 256.067 226.045 253.08 226.045C248.145 226.045 245.293 222.786 245.293 219.21ZM254.755 221.065C256.792 221.065 258.875 220.069 258.875 216.583V215.587L254.619 216.266C253.171 216.492 252.084 217.172 252.084 218.756C252.084 219.933 252.854 221.065 254.755 221.065ZM277.929 196.348H271.772V199.245C271.772 201.328 270.64 202.912 268.286 202.912H267.155V208.933H271.138V218.576C271.138 223.058 273.99 225.819 278.653 225.819C280.826 225.819 281.958 225.321 282.23 225.185V219.481C281.822 219.572 281.143 219.708 280.419 219.708C278.925 219.708 277.929 219.21 277.929 217.354V208.933H282.32V202.912H277.929V196.348ZM290.692 211.468H299.701C299.61 209.748 298.433 207.665 295.174 207.665C292.277 207.665 290.828 209.793 290.692 211.468ZM300.198 217.308L305.947 218.938C304.861 222.831 301.284 226.091 295.58 226.091C289.378 226.091 283.855 221.654 283.855 214.094C283.855 206.851 289.242 202.233 295.082 202.233C302.054 202.233 306.355 206.534 306.355 213.777C306.355 214.728 306.264 215.769 306.219 215.905H290.555C290.691 218.44 293 220.251 295.671 220.251C298.161 220.251 299.564 219.074 300.198 217.308ZM314.136 225.412V212.284C314.136 209.025 316.174 206.761 319.207 206.761C322.466 206.761 323.824 208.934 323.824 211.741V225.412H328.08V212.239C328.08 209.115 330.117 206.761 333.105 206.761C336.319 206.761 337.722 208.889 337.722 211.741V225.412H341.932V211.288C341.932 205.584 338.22 203.004 334.417 203.004C331.656 203.004 328.849 204 327.129 207.123C325.952 204.316 323.326 203.004 320.61 203.004C318.075 203.004 315.359 204.135 314.001 206.535V203.637H309.926V225.412H314.136ZM352.704 234.508L366.874 203.634H362.302L355.783 218.663L348.992 203.634H344.103L353.474 223.009L348.042 234.508H352.704ZM367.551 219.21C367.551 215.226 370.494 212.962 374.206 212.419L379.502 211.604C380.725 211.423 381.132 210.835 381.132 210.065C381.132 208.752 380 207.62 377.827 207.62C375.428 207.62 374.115 209.25 373.979 210.925L368.004 209.703C368.275 206.489 371.263 202.233 377.873 202.233C385.161 202.233 387.832 206.307 387.832 210.925V221.926C387.832 223.691 388.059 225.185 388.104 225.412H381.902C381.857 225.23 381.675 224.416 381.675 222.876C380.498 224.778 378.325 226.045 375.338 226.045C370.403 226.045 367.551 222.786 367.551 219.21ZM377.009 221.065C379.046 221.065 381.129 220.069 381.129 216.583V215.587L376.873 216.266C375.425 216.492 374.338 217.172 374.338 218.756C374.338 219.933 375.108 221.065 377.009 221.065ZM390.452 226.679L396.519 224.958C396.971 227.131 398.782 228.716 401.363 228.716C404.803 228.716 406.931 227.041 406.931 222.967V221.925C406.116 223.148 404.169 224.46 400.91 224.46C394.934 224.46 390.452 219.752 390.452 213.505C390.452 207.575 394.753 202.504 400.91 202.504C404.577 202.504 406.523 204.134 407.157 205.311V202.912H413.721V222.604C413.721 229.078 410.1 234.692 401.679 234.692C395.206 234.692 391.086 230.708 390.452 226.679ZM402.176 218.485C404.983 218.485 406.975 216.584 406.975 213.505C406.975 210.427 404.757 208.526 402.176 208.526C399.596 208.526 397.332 210.427 397.332 213.505C397.332 216.584 399.415 218.485 402.176 218.485ZM423.27 211.468H432.279C432.189 209.748 431.011 207.665 427.752 207.665C424.855 207.665 423.406 209.793 423.27 211.468ZM432.778 217.308L438.527 218.938C437.441 222.831 433.864 226.091 428.16 226.091C421.958 226.091 416.435 221.654 416.435 214.094C416.435 206.851 421.822 202.233 427.662 202.233C434.634 202.233 438.934 206.534 438.934 213.777C438.934 214.728 438.844 215.769 438.799 215.905H423.135C423.271 218.44 425.58 220.251 428.251 220.251C430.741 220.251 432.144 219.074 432.778 217.308ZM448.798 212.509C448.798 210.245 450.247 208.57 452.51 208.57C455 208.57 456.177 210.245 456.177 212.463V225.411H463.058V211.286C463.058 206.352 460.523 202.323 454.864 202.323C452.555 202.323 449.794 203.364 448.572 205.492V202.911H441.917V225.411H448.798V212.509ZM475.641 196.348H469.484V199.245C469.484 201.328 468.352 202.912 465.998 202.912H464.867V208.933H468.85V218.576C468.85 223.058 471.702 225.819 476.365 225.819C478.538 225.819 479.67 225.321 479.942 225.185V219.481C479.534 219.572 478.855 219.708 478.131 219.708C476.637 219.708 475.641 219.21 475.641 217.354V208.933H480.032V202.912H475.641V196.348Z" fill="white"/>
<defs>
<linearGradient id="paint0_linear_2054_15705" x1="1.21993" y1="379.921" x2="735.108" y2="379.921" gradientUnits="userSpaceOnUse">
<stop stop-color="#FF64C1"/>
<stop offset="1" stop-color="#920D5D"/>
</linearGradient>
<linearGradient id="paint1_linear_2054_15705" x1="635.793" y1="721.408" x2="343.581" y2="550.771" gradientUnits="userSpaceOnUse">
<stop stop-color="#FF64C1"/>
<stop offset="1" stop-color="#920D5D"/>
</linearGradient>
<linearGradient id="paint2_linear_2054_15705" x1="98.2829" y1="721.408" x2="390.494" y2="550.771" gradientUnits="userSpaceOnUse">
<stop stop-color="#FF64C1"/>
<stop offset="1" stop-color="#920D5D"/>
</linearGradient>
<linearGradient id="paint3_linear_2054_15705" x1="62.4842" y1="379.928" x2="668.287" y2="379.928" gradientUnits="userSpaceOnUse">
<stop stop-color="#FF64C1"/>
<stop offset="1" stop-color="#920D5D"/>
</linearGradient>
<linearGradient id="paint4_linear_2054_15705" x1="362.384" y1="506.581" x2="373.494" y2="767.649" gradientUnits="userSpaceOnUse">
<stop stop-color="#FF64C1"/>
<stop offset="1" stop-color="#920D5D"/>
</linearGradient>
<linearGradient id="paint5_linear_2054_15705" x1="496.64" y1="500.868" x2="507.75" y2="761.936" gradientUnits="userSpaceOnUse">
<stop stop-color="#FF64C1"/>
<stop offset="1" stop-color="#920D5D"/>
</linearGradient>
<linearGradient id="paint6_linear_2054_15705" x1="229.042" y1="512.254" x2="240.152" y2="773.323" gradientUnits="userSpaceOnUse">
<stop stop-color="#FF64C1"/>
<stop offset="1" stop-color="#920D5D"/>
</linearGradient>
</defs>
</svg>
