<svg width="735" height="804" viewBox="0 0 735 804" fill="none" xmlns="http://www.w3.org/2000/svg">
<path d="M724.928 342.715L575.207 86.8622C561.941 64.1197 537.303 49.9058 510.77 49.9058H217.961C191.428 49.9058 166.791 64.1198 153.524 87.8099L9.48874 342.715C-3.77769 365.457 -2.83017 393.885 10.4363 416.628L160.157 672.481C173.424 695.223 198.062 709.437 224.594 709.437H517.404C543.936 709.437 568.574 695.223 581.84 671.533L725.876 416.628C738.195 393.885 738.195 365.457 724.928 342.715Z" fill="url(#paint0_linear_2054_15882)"/>
<path d="M724.928 342.715L575.207 86.8622C561.941 64.1197 537.303 49.9058 510.77 49.9058H217.961C191.428 49.9058 166.791 64.1198 153.524 87.8099L9.48874 342.715C-3.77769 365.457 -2.83017 393.885 10.4363 416.628L160.157 672.481C173.424 695.223 198.062 709.437 224.594 709.437H517.404C543.936 709.437 568.574 695.223 581.84 671.533L725.876 416.628C738.195 393.885 738.195 365.457 724.928 342.715Z" fill="url(#paint1_linear_2054_15882)"/>
<path d="M695.404 659.681L597.801 699.48L611.068 803.716L301.202 622.724L385.538 478.688L695.404 659.681Z" fill="#E6E7E8"/>
<path d="M664.134 672.945L597.802 699.478L607.278 770.548L314.469 599.979L372.273 502.376L664.134 672.945Z" fill="url(#paint2_linear_2054_15882)"/>
<path d="M664.134 672.945L597.802 699.478L607.278 770.548L314.469 599.979L372.273 502.376L664.134 672.945Z" fill="url(#paint3_linear_2054_15882)"/>
<path d="M38.6689 659.681L136.272 699.48L123.005 803.716L432.871 622.724L348.535 478.688L38.6689 659.681Z" fill="#E6E7E8"/>
<path d="M69.9412 672.945L136.273 699.478L126.797 770.548L419.606 599.979L361.803 502.376L69.9412 672.945Z" fill="url(#paint4_linear_2054_15882)"/>
<path d="M69.9412 672.945L136.273 699.478L126.797 770.548L419.606 599.979L361.803 502.376L69.9412 672.945Z" fill="url(#paint5_linear_2054_15882)"/>
<path d="M697.449 531.288V228.055C697.449 201.522 683.235 176.885 660.492 163.618L402.745 12.9498C380.002 -0.316608 350.626 -0.316608 327.884 12.9498L70.1361 163.618C47.3937 176.885 33.1797 201.522 33.1797 228.055V531.288C33.1797 557.821 47.3937 582.459 70.1361 595.725L327.884 746.394C350.626 759.66 380.002 759.66 402.745 746.394L660.492 595.725C683.235 582.459 697.449 557.821 697.449 531.288Z" fill="white" stroke="#E6E7E8" stroke-width="4.73801" stroke-miterlimit="10"/>
<path d="M658.598 508.548V250.8C658.598 224.267 644.384 199.629 621.642 186.363L402.745 58.4366C380.003 45.1702 350.627 45.1702 327.885 58.4366L108.989 187.311C86.2463 200.577 72.0322 225.215 72.0322 251.747V509.495C72.0322 536.028 86.2463 560.666 108.989 573.932L327.885 701.859C350.627 715.125 380.003 715.125 402.745 701.859L621.642 573.932C644.384 559.718 658.598 535.081 658.598 508.548Z" stroke="url(#paint6_linear_2054_15882)" stroke-width="18.952" stroke-miterlimit="10"/>
<path d="M364.427 509.493L375.798 544.555H412.755L382.431 566.349L393.802 602.358L364.427 580.563L334.104 602.358L345.475 566.349L315.152 544.555H352.108L364.427 509.493Z" fill="url(#paint7_linear_2054_15882)"/>
<path d="M498.036 509.493L505.617 534.131H532.15L511.302 549.293L518.883 573.93L498.036 558.769L477.188 573.93L484.769 549.293L463.922 534.131H490.455L498.036 509.493Z" fill="url(#paint8_linear_2054_15882)"/>
<path d="M229.864 509.493L238.392 534.131H263.977L243.13 549.293L250.711 573.93L229.864 558.769L209.016 573.93L217.545 549.293L196.698 534.131H222.283L229.864 509.493Z" fill="url(#paint9_linear_2054_15882)"/>
<path d="M507.185 183.951C506.597 183.951 506.054 183.849 505.556 183.646C505.058 183.434 504.62 183.144 504.243 182.774C503.873 182.397 503.583 181.959 503.371 181.461C503.168 180.956 503.066 180.413 503.066 179.832C503.066 179.251 503.168 178.711 503.371 178.213C503.583 177.708 503.873 177.27 504.243 176.9C504.62 176.531 505.058 176.244 505.556 176.04C506.054 175.829 506.597 175.723 507.185 175.723C507.766 175.723 508.306 175.829 508.804 176.04C509.309 176.244 509.747 176.531 510.117 176.9C510.486 177.27 510.773 177.708 510.977 178.213C511.188 178.711 511.294 179.251 511.294 179.832C511.294 180.413 511.188 180.956 510.977 181.461C510.773 181.959 510.486 182.397 510.117 182.774C509.747 183.144 509.309 183.434 508.804 183.646C508.306 183.849 507.766 183.951 507.185 183.951ZM507.185 183.227C507.668 183.227 508.113 183.144 508.521 182.978C508.928 182.804 509.283 182.563 509.585 182.254C509.887 181.944 510.117 181.586 510.275 181.178C510.441 180.763 510.524 180.314 510.524 179.832C510.524 179.349 510.441 178.904 510.275 178.496C510.117 178.081 509.887 177.723 509.585 177.421C509.283 177.112 508.928 176.874 508.521 176.708C508.113 176.534 507.668 176.448 507.185 176.448C506.695 176.448 506.246 176.534 505.839 176.708C505.431 176.874 505.077 177.112 504.775 177.421C504.473 177.723 504.239 178.081 504.073 178.496C503.915 178.904 503.835 179.349 503.835 179.832C503.835 180.314 503.915 180.763 504.073 181.178C504.239 181.586 504.473 181.944 504.775 182.254C505.077 182.563 505.431 182.804 505.839 182.978C506.246 183.144 506.695 183.227 507.185 183.227ZM506.02 182.287C505.529 182.287 505.284 182.035 505.284 181.529V178.304C505.284 178.025 505.356 177.809 505.499 177.659C505.65 177.5 505.869 177.421 506.156 177.421H507.514C508.064 177.421 508.491 177.56 508.793 177.84C509.094 178.119 509.245 178.462 509.245 178.87C509.245 179.307 509.098 179.643 508.804 179.877C508.517 180.111 508.117 180.228 507.604 180.228L507.989 180.092C508.246 180.092 508.449 180.152 508.6 180.273C508.751 180.386 508.876 180.631 508.974 181.009L509.087 181.416C509.162 181.718 509.121 181.94 508.962 182.084C508.811 182.22 508.604 182.287 508.34 182.287C508.159 182.287 508.008 182.235 507.887 182.129C507.774 182.023 507.699 181.88 507.661 181.699L507.457 180.873C507.427 180.737 507.37 180.646 507.287 180.601C507.212 180.548 507.125 180.522 507.027 180.522H506.552L506.767 180.386V181.529C506.767 182.035 506.518 182.287 506.02 182.287ZM506.755 179.458H507.299C507.48 179.458 507.616 179.42 507.706 179.345C507.797 179.269 507.842 179.145 507.842 178.971C507.842 178.798 507.793 178.673 507.695 178.598C507.604 178.522 507.472 178.485 507.299 178.485H506.755V179.458Z" fill="#1A222C"/>
<path fill-rule="evenodd" clip-rule="evenodd" d="M218.494 175.614C213.494 175.614 209.44 179.668 209.44 184.668V241.256C209.44 241.273 209.44 241.289 209.44 241.306V261.399L220.529 250.31H491.248C496.248 250.31 500.302 246.257 500.302 241.256V184.668C500.302 179.668 496.248 175.614 491.248 175.614H218.494Z" fill="#1A222C"/>
<path fill-rule="evenodd" clip-rule="evenodd" d="M243.755 202.912C243.303 202.776 242.624 202.686 241.945 202.686C240.134 202.686 237.282 203.41 236.105 205.945V202.912H229.45V225.412H236.331V215.588C236.331 211.106 238.821 209.476 241.582 209.476C242.261 209.476 242.986 209.522 243.755 209.703V202.912ZM245.293 219.21C245.293 215.226 248.236 212.962 251.948 212.419L257.244 211.604C258.467 211.423 258.874 210.835 258.874 210.065C258.874 208.752 257.742 207.62 255.569 207.62C253.17 207.62 251.857 209.25 251.721 210.925L245.746 209.703C246.017 206.489 249.005 202.233 255.615 202.233C262.903 202.233 265.574 206.307 265.574 210.925V221.926C265.574 223.691 265.8 225.185 265.846 225.412H259.644C259.598 225.23 259.417 224.416 259.417 222.876C258.24 224.778 256.067 226.045 253.08 226.045C248.145 226.045 245.293 222.786 245.293 219.21ZM254.755 221.065C256.792 221.065 258.875 220.069 258.875 216.583V215.587L254.619 216.266C253.171 216.492 252.084 217.172 252.084 218.756C252.084 219.933 252.854 221.065 254.755 221.065ZM277.929 196.348H271.772V199.245C271.772 201.328 270.64 202.912 268.286 202.912H267.155V208.933H271.138V218.576C271.138 223.058 273.99 225.819 278.653 225.819C280.826 225.819 281.958 225.321 282.23 225.185V219.481C281.822 219.572 281.143 219.708 280.419 219.708C278.925 219.708 277.929 219.21 277.929 217.354V208.933H282.32V202.912H277.929V196.348ZM290.692 211.468H299.701C299.61 209.748 298.433 207.665 295.174 207.665C292.277 207.665 290.828 209.793 290.692 211.468ZM300.198 217.308L305.947 218.938C304.861 222.831 301.284 226.091 295.58 226.091C289.378 226.091 283.855 221.654 283.855 214.094C283.855 206.851 289.242 202.233 295.082 202.233C302.054 202.233 306.355 206.534 306.355 213.777C306.355 214.728 306.264 215.769 306.219 215.905H290.555C290.691 218.44 293 220.251 295.671 220.251C298.161 220.251 299.564 219.074 300.198 217.308ZM314.136 225.412V212.284C314.136 209.025 316.174 206.761 319.207 206.761C322.466 206.761 323.824 208.934 323.824 211.741V225.412H328.08V212.239C328.08 209.115 330.117 206.761 333.105 206.761C336.319 206.761 337.722 208.889 337.722 211.741V225.412H341.932V211.288C341.932 205.584 338.22 203.004 334.417 203.004C331.656 203.004 328.849 204 327.129 207.123C325.952 204.316 323.326 203.004 320.61 203.004C318.075 203.004 315.359 204.135 314.001 206.535V203.637H309.926V225.412H314.136ZM352.704 234.508L366.874 203.634H362.302L355.783 218.663L348.992 203.634H344.103L353.474 223.009L348.042 234.508H352.704ZM367.551 219.21C367.551 215.226 370.494 212.962 374.206 212.419L379.502 211.604C380.725 211.423 381.132 210.835 381.132 210.065C381.132 208.752 380 207.62 377.827 207.62C375.428 207.62 374.115 209.25 373.979 210.925L368.004 209.703C368.275 206.489 371.263 202.233 377.873 202.233C385.161 202.233 387.832 206.307 387.832 210.925V221.926C387.832 223.691 388.059 225.185 388.104 225.412H381.902C381.857 225.23 381.675 224.416 381.675 222.876C380.498 224.778 378.325 226.045 375.338 226.045C370.403 226.045 367.551 222.786 367.551 219.21ZM377.009 221.065C379.046 221.065 381.129 220.069 381.129 216.583V215.587L376.873 216.266C375.425 216.492 374.338 217.172 374.338 218.756C374.338 219.933 375.108 221.065 377.009 221.065ZM390.452 226.679L396.519 224.958C396.971 227.131 398.782 228.716 401.363 228.716C404.803 228.716 406.931 227.041 406.931 222.967V221.925C406.116 223.148 404.169 224.46 400.91 224.46C394.934 224.46 390.452 219.752 390.452 213.505C390.452 207.575 394.753 202.504 400.91 202.504C404.577 202.504 406.523 204.134 407.157 205.311V202.912H413.721V222.604C413.721 229.078 410.1 234.692 401.679 234.692C395.206 234.692 391.086 230.708 390.452 226.679ZM402.176 218.485C404.983 218.485 406.975 216.584 406.975 213.505C406.975 210.427 404.757 208.526 402.176 208.526C399.596 208.526 397.332 210.427 397.332 213.505C397.332 216.584 399.415 218.485 402.176 218.485ZM423.27 211.468H432.279C432.189 209.748 431.011 207.665 427.752 207.665C424.855 207.665 423.406 209.793 423.27 211.468ZM432.778 217.308L438.527 218.938C437.441 222.831 433.864 226.091 428.16 226.091C421.958 226.091 416.435 221.654 416.435 214.094C416.435 206.851 421.822 202.233 427.662 202.233C434.634 202.233 438.934 206.534 438.934 213.777C438.934 214.728 438.844 215.769 438.799 215.905H423.135C423.271 218.44 425.58 220.251 428.251 220.251C430.741 220.251 432.144 219.074 432.778 217.308ZM448.798 212.509C448.798 210.245 450.247 208.57 452.51 208.57C455 208.57 456.177 210.245 456.177 212.463V225.411H463.058V211.286C463.058 206.352 460.523 202.323 454.864 202.323C452.555 202.323 449.794 203.364 448.572 205.492V202.911H441.917V225.411H448.798V212.509ZM475.641 196.348H469.484V199.245C469.484 201.328 468.352 202.912 465.998 202.912H464.867V208.933H468.85V218.576C468.85 223.058 471.702 225.819 476.365 225.819C478.538 225.819 479.67 225.321 479.942 225.185V219.481C479.534 219.572 478.855 219.708 478.131 219.708C476.637 219.708 475.641 219.21 475.641 217.354V208.933H480.032V202.912H475.641V196.348Z" fill="white"/>
<path d="M156.014 334.406V398.766H140.239V334.406H115V319.893H180.622V334.406H156.014Z" fill="#1C75BC"/>
<path d="M216.588 368.48H208.385V398.767H193.241V319.263H224.16C239.303 319.263 249.399 329.99 249.399 343.872C249.399 355.229 243.089 363.432 232.363 366.587L249.399 398.767H232.363L216.588 368.48ZM221.005 355.229C228.576 355.229 233.624 350.812 233.624 344.503C233.624 337.562 229.207 333.145 221.005 333.145H208.385V355.229H221.005Z" fill="#1C75BC"/>
<path d="M263.281 371.003V319.893H278.425V369.741C278.425 379.836 284.104 385.515 293.569 385.515C303.033 385.515 308.712 379.836 308.712 369.741V319.893H323.856V371.003C323.856 390.563 310.605 400.659 293.569 400.659C277.163 400.659 263.281 390.563 263.281 371.003Z" fill="#1C75BC"/>
<path d="M382.537 342.609C381.906 338.192 378.12 331.251 368.025 331.251C360.453 331.251 355.405 336.299 355.405 341.346C355.405 345.763 357.929 348.918 364.239 350.18L375.596 352.073C390.109 354.597 397.681 364.062 397.681 375.42C397.681 387.408 387.585 400.028 369.286 400.028C348.464 400.028 338.999 386.777 337.737 375.42L352.25 371.634C352.881 379.205 358.56 386.777 369.286 386.777C377.489 386.777 381.906 382.36 381.906 377.313C381.906 372.896 378.751 369.11 372.441 367.848L361.084 365.324C348.464 362.8 340.261 354.597 340.261 342.609C340.261 328.727 352.881 318 368.025 318C386.954 318 394.526 329.358 396.419 338.823L382.537 342.609Z" fill="#1C75BC"/>
<path d="M444.374 334.406V398.766H428.599V334.406H403.36V319.893H468.982V334.406H444.374Z" fill="#1C75BC"/>
<path d="M481.601 398.767V319.263H531.449V333.776H497.376V352.074H528.294V365.956H497.376V384.254H531.449V398.767H481.601Z" fill="#1C75BC"/>
<path d="M547.855 398.767V319.263H576.249C598.965 319.263 615.37 333.776 615.37 359.015C615.37 384.254 598.965 398.767 576.249 398.767H547.855ZM575.618 384.254C588.869 384.254 599.596 376.052 599.596 359.015C599.596 341.979 588.869 333.776 575.618 333.776H562.999V384.254H575.618Z" fill="#1C75BC"/>
<path d="M289.784 463.127H272.116L268.331 473.223H259.497L276.533 429.054H286.629L303.666 473.223H294.201L289.784 463.127ZM274.64 455.556H286.629L280.319 439.15L274.64 455.556Z" fill="#1C75BC"/>
<path d="M340.264 473.225L339.633 468.177C337.74 471.332 333.323 473.856 326.383 473.856C314.394 473.856 304.298 465.022 304.298 451.14C304.298 436.628 315.025 428.425 327.014 428.425C338.371 428.425 344.681 435.366 347.205 441.675L339.002 444.83C337.74 441.045 333.954 436.628 327.014 436.628C320.073 436.628 313.132 441.045 313.132 451.771C313.132 461.867 319.442 466.915 327.014 466.915C335.216 466.915 338.371 461.236 339.002 458.081H325.12V450.509H347.205V473.225H340.264Z" fill="#1C75BC"/>
<path d="M356.037 473.223V429.054H383.801V437.257H364.871V447.353H381.907V454.925H364.871V465.02H383.801V473.223H356.037Z" fill="#1C75BC"/>
<path d="M421.659 473.223L401.467 441.674V473.223H392.634V429.054H403.36L421.659 458.079V429.685H430.493V473.854H421.659V473.223Z" fill="#1C75BC"/>
<path d="M459.517 437.255V473.221H450.684V437.255H436.802V429.684H473.399V437.886H459.517V437.255Z" fill="#1C75BC"/>
<path d="M506.211 449.248H615.371" stroke="#1C75BC" stroke-width="1.57746" stroke-miterlimit="10"/>
<path d="M116.894 449.248H225.423" stroke="#1C75BC" stroke-width="1.57746" stroke-miterlimit="10"/>
<defs>
<linearGradient id="paint0_linear_2054_15882" x1="1.21993" y1="379.921" x2="735.108" y2="379.921" gradientUnits="userSpaceOnUse">
<stop stop-color="#FF64C1"/>
<stop offset="1" stop-color="#920D5D"/>
</linearGradient>
<linearGradient id="paint1_linear_2054_15882" x1="86.0241" y1="544.454" x2="650.266" y2="214.964" gradientUnits="userSpaceOnUse">
<stop stop-color="#00AEEF"/>
<stop offset="1" stop-color="#2E3192"/>
</linearGradient>
<linearGradient id="paint2_linear_2054_15882" x1="635.793" y1="721.408" x2="343.581" y2="550.771" gradientUnits="userSpaceOnUse">
<stop stop-color="#FF64C1"/>
<stop offset="1" stop-color="#920D5D"/>
</linearGradient>
<linearGradient id="paint3_linear_2054_15882" x1="623.21" y1="703.464" x2="377.802" y2="535.795" gradientUnits="userSpaceOnUse">
<stop stop-color="#00AEEF"/>
<stop offset="1" stop-color="#2E3192"/>
</linearGradient>
<linearGradient id="paint4_linear_2054_15882" x1="98.2829" y1="721.408" x2="390.494" y2="550.771" gradientUnits="userSpaceOnUse">
<stop stop-color="#FF64C1"/>
<stop offset="1" stop-color="#920D5D"/>
</linearGradient>
<linearGradient id="paint5_linear_2054_15882" x1="110.866" y1="703.464" x2="356.274" y2="535.795" gradientUnits="userSpaceOnUse">
<stop stop-color="#00AEEF"/>
<stop offset="1" stop-color="#2E3192"/>
</linearGradient>
<linearGradient id="paint6_linear_2054_15882" x1="140.684" y1="545.877" x2="637.795" y2="315.536" gradientUnits="userSpaceOnUse">
<stop stop-color="#00AEEF"/>
<stop offset="1" stop-color="#2E3192"/>
</linearGradient>
<linearGradient id="paint7_linear_2054_15882" x1="362.384" y1="506.581" x2="373.494" y2="767.649" gradientUnits="userSpaceOnUse">
<stop stop-color="#00AEEF"/>
<stop offset="1" stop-color="#2E3192"/>
</linearGradient>
<linearGradient id="paint8_linear_2054_15882" x1="496.64" y1="500.868" x2="507.75" y2="761.936" gradientUnits="userSpaceOnUse">
<stop stop-color="#00AEEF"/>
<stop offset="1" stop-color="#2E3192"/>
</linearGradient>
<linearGradient id="paint9_linear_2054_15882" x1="229.042" y1="512.254" x2="240.152" y2="773.323" gradientUnits="userSpaceOnUse">
<stop stop-color="#00AEEF"/>
<stop offset="1" stop-color="#2E3192"/>
</linearGradient>
</defs>
</svg>
